<?xml version="1.0" encoding="UTF-8" standalone="no"?><!DOCTYPE svg PUBLIC "-//W3C//DTD SVG 1.1//EN" "http://www.w3.org/Graphics/SVG/1.1/DTD/svg11.dtd"><svg width="100%" height="100%" viewBox="0 0 88 30" version="1.1" xmlns="http://www.w3.org/2000/svg" xmlns:xlink="http://www.w3.org/1999/xlink" xml:space="preserve" style="fill-rule:evenodd;clip-rule:evenodd;stroke-linejoin:round;stroke-miterlimit:1.41421;"><g><g><g><path d="M79.337,26.527l1.322,0l0,3.413l0.815,0l0,-3.413l1.321,0l0,-0.793l-3.458,0l0,0.793Z" style="fill:#122046;fill-rule:nonzero;"/><path d="M85.702,28.575l-1.079,-2.841l-1.234,0l0,4.206l0.815,0l0,-3.149l1.057,2.753l0.881,0l1.035,-2.753l0,3.149l0.859,0l0,-4.206l-1.233,0l-1.101,2.841l0,0Z" style="fill:#122046;fill-rule:nonzero;"/></g><path d="M80.66,0c-1.644,0 -3.213,1.083 -3.731,2.577c-0.098,0.285 -3.25,12.197 -4.492,16.892l-5.424,-19.469l-8.201,0l-5.426,19.434l-5.173,-19.434l-48.213,0l0,26.013c0,2.181 1.762,3.942 3.942,3.937l3.936,0l0,-11.08l10.326,0l0,-7.21l-10.32,0l0,-4.471l14.039,0l0,22.761l7.873,0l0,-11.08l10.326,0l0,-7.21l-10.337,0l0,-4.471l12.374,0l6.633,22.761l8.959,0l5.11,-17.477l5.109,17.477l8.959,0l8.728,-29.95l-4.997,0l0,0Z" style="fill:#122046;fill-rule:nonzero;"/></g></g></svg>